<?xml version="1.0" encoding="UTF-8" standalone="no"?>
<!DOCTYPE svg PUBLIC "-//W3C//DTD SVG 1.1//EN"
 "http://www.w3.org/Graphics/SVG/1.1/DTD/svg11.dtd">
<!-- Generated by graphviz version 2.43.0 (0)
 -->
<!-- Title: test123 Pages: 1 -->
<svg width="310pt" height="268pt"
 viewBox="0.00 0.00 310.20 267.85" xmlns="http://www.w3.org/2000/svg" xmlns:xlink="http://www.w3.org/1999/xlink">
<g id="graph0" class="graph" transform="scale(1 1) rotate(0) translate(4 263.85)">
<title>test123</title>
<polygon fill="white" stroke="transparent" points="-4,4 -4,-263.85 306.2,-263.85 306.2,4 -4,4"/>
<!-- a -->
<g id="node1" class="node">
<title>a</title>
<ellipse fill="none" stroke="black" cx="275.2" cy="-241.85" rx="27" ry="18"/>
<text text-anchor="middle" x="275.2" y="-238.15" font-family="Times,serif" font-size="14.00">a</text>
</g>
<!-- b -->
<g id="node2" class="node">
<title>b</title>
<polygon fill="none" stroke="black" points="77.2,-186.85 23.2,-186.85 23.2,-150.85 77.2,-150.85 77.2,-186.85"/>
<text text-anchor="middle" x="50.2" y="-165.15" font-family="Times,serif" font-size="14.00">b</text>
</g>
<!-- a&#45;&gt;b -->
<g id="edge1" class="edge">
<title>a&#45;&gt;b</title>
<path fill="none" stroke="black" d="M251.13,-233.25C211.73,-220.82 133.26,-196.06 86.9,-181.43"/>
<polygon fill="black" stroke="black" points="87.83,-178.06 77.24,-178.38 85.72,-184.73 87.83,-178.06"/>
</g>
<!-- x -->
<g id="node4" class="node">
<title>x</title>
<ellipse fill="none" stroke="black" cx="140.2" cy="-168.85" rx="27" ry="18"/>
<text text-anchor="middle" x="140.2" y="-165.15" font-family="Times,serif" font-size="14.00">x</text>
</g>
<!-- a&#45;&gt;x -->
<g id="edge3" class="edge">
<title>a&#45;&gt;x</title>
<path fill="none" stroke="black" d="M254.7,-230.07C232.1,-218.18 195.55,-198.96 169.84,-185.44"/>
<polygon fill="black" stroke="black" points="171.38,-182.29 160.9,-180.74 168.12,-188.49 171.38,-182.29"/>
</g>
<!-- y -->
<g id="node5" class="node">
<title>y</title>
<ellipse fill="none" stroke="black" cx="212.2" cy="-168.85" rx="27" ry="18"/>
<text text-anchor="middle" x="212.2" y="-165.15" font-family="Times,serif" font-size="14.00">y</text>
</g>
<!-- a&#45;&gt;y -->
<g id="edge4" class="edge">
<title>a&#45;&gt;y</title>
<path fill="none" stroke="black" d="M261.84,-225.8C253.24,-216.1 241.9,-203.32 232.23,-192.42"/>
<polygon fill="black" stroke="black" points="234.8,-190.05 225.55,-184.89 229.57,-194.69 234.8,-190.05"/>
</g>
<!-- z -->
<g id="node6" class="node">
<title>z</title>
<ellipse fill="none" stroke="black" cx="275.2" cy="-42.43" rx="27" ry="18"/>
<text text-anchor="middle" x="275.2" y="-38.73" font-family="Times,serif" font-size="14.00">z</text>
</g>
<!-- a&#45;&gt;z -->
<g id="edge5" class="edge">
<title>a&#45;&gt;z</title>
<path fill="none" stroke="black" d="M275.2,-223.68C275.2,-189.4 275.2,-112.26 275.2,-70.88"/>
<polygon fill="black" stroke="black" points="278.7,-70.7 275.2,-60.7 271.7,-70.7 278.7,-70.7"/>
<text text-anchor="middle" x="282.2" y="-165.15" font-family="Times,serif" font-size="14.00">hi</text>
</g>
<!-- c -->
<g id="node3" class="node">
<title>c</title>
<ellipse fill="blue" stroke="blue" cx="50.2" cy="-42.43" rx="50.41" ry="42.35"/>
<text text-anchor="middle" x="50.2" y="-49.23" font-family="Palatino Linotype,serif" font-style="italic" font-size="24.00" fill="red">hello</text>
<text text-anchor="middle" x="50.2" y="-23.23" font-family="Palatino Linotype,serif" font-style="italic" font-size="24.00" fill="red">world</text>
</g>
<!-- b&#45;&gt;c -->
<g id="edge2" class="edge">
<title>b&#45;&gt;c</title>
<path fill="none" stroke="black" d="M50.2,-150.81C50.2,-136.42 50.2,-115.02 50.2,-95.1"/>
<polygon fill="black" stroke="black" points="53.7,-94.87 50.2,-84.87 46.7,-94.87 53.7,-94.87"/>
</g>
<!-- b&#45;&gt;x -->
<g id="edge7" class="edge">
<title>b&#45;&gt;x</title>
<path fill="none" stroke="red" stroke-dasharray="5,2" d="M77.27,-168.85C85.87,-168.85 94.47,-168.85 103.07,-168.85"/>
<polygon fill="red" stroke="red" points="103.16,-172.35 113.16,-168.85 103.16,-165.35 103.16,-172.35"/>
</g>
<!-- x&#45;&gt;z -->
<g id="edge6" class="edge">
<title>x&#45;&gt;z</title>
<path fill="none" stroke="black" d="M150.89,-152.14C160.72,-138.31 176.16,-118.06 192.2,-102.85 209.03,-86.91 230.32,-71.74 247.13,-60.73"/>
<polygon fill="black" stroke="black" points="249.43,-63.41 255.95,-55.05 245.65,-57.52 249.43,-63.41"/>
<text text-anchor="middle" x="226.7" y="-121.65" font-family="Times,serif" font-size="14.00">multi&#45;line</text>
<text text-anchor="middle" x="226.7" y="-106.65" font-family="Times,serif" font-size="14.00">label</text>
</g>
</g>
</svg>
