<?xml version="1.0" encoding="UTF-8" standalone="no"?>
<!DOCTYPE svg PUBLIC "-//W3C//DTD SVG 1.1//EN"
 "http://www.w3.org/Graphics/SVG/1.1/DTD/svg11.dtd">
<!-- Generated by graphviz version 2.43.0 (0)
 -->
<!-- Title: callGraph Pages: 1 -->
<svg width="189pt" height="404pt"
 viewBox="0.00 0.00 188.68 404.00" xmlns="http://www.w3.org/2000/svg" xmlns:xlink="http://www.w3.org/1999/xlink">
<g id="graph0" class="graph" transform="scale(1 1) rotate(0) translate(4 400)">
<title>callGraph</title>
<polygon fill="white" stroke="transparent" points="-4,4 -4,-400 184.68,-400 184.68,4 -4,4"/>
<!-- call_graphs_start -->
<g id="node1" class="node">
<title>call_graphs_start</title>
<ellipse fill="none" stroke="black" cx="90.34" cy="-378" rx="90.18" ry="18"/>
<text text-anchor="middle" x="90.34" y="-374.3" font-family="Times,serif" font-size="14.00">call_graphs_start</text>
</g>
<!-- 3 -->
<g id="node2" class="node">
<title>3</title>
<ellipse fill="none" stroke="black" cx="54.34" cy="-306" rx="27" ry="18"/>
<text text-anchor="middle" x="54.34" y="-302.3" font-family="Times,serif" font-size="14.00">3</text>
</g>
<!-- call_graphs_start&#45;&gt;3 -->
<g id="edge1" class="edge">
<title>call_graphs_start&#45;&gt;3</title>
<path fill="none" stroke="black" d="M81.63,-360.05C77.36,-351.77 72.15,-341.62 67.42,-332.42"/>
<polygon fill="black" stroke="black" points="70.41,-330.6 62.73,-323.31 64.19,-333.8 70.41,-330.6"/>
</g>
<!-- 7 -->
<g id="node7" class="node">
<title>7</title>
<ellipse fill="none" stroke="black" cx="126.34" cy="-306" rx="27" ry="18"/>
<text text-anchor="middle" x="126.34" y="-302.3" font-family="Times,serif" font-size="14.00">7</text>
</g>
<!-- call_graphs_start&#45;&gt;7 -->
<g id="edge6" class="edge">
<title>call_graphs_start&#45;&gt;7</title>
<path fill="none" stroke="black" d="M99.06,-360.05C103.32,-351.77 108.54,-341.62 113.27,-332.42"/>
<polygon fill="black" stroke="black" points="116.49,-333.8 117.96,-323.31 110.27,-330.6 116.49,-333.8"/>
</g>
<!-- 4 -->
<g id="node3" class="node">
<title>4</title>
<ellipse fill="none" stroke="black" cx="54.34" cy="-234" rx="27" ry="18"/>
<text text-anchor="middle" x="54.34" y="-230.3" font-family="Times,serif" font-size="14.00">4</text>
</g>
<!-- 3&#45;&gt;4 -->
<g id="edge2" class="edge">
<title>3&#45;&gt;4</title>
<path fill="none" stroke="black" d="M54.34,-287.7C54.34,-279.98 54.34,-270.71 54.34,-262.11"/>
<polygon fill="black" stroke="black" points="57.84,-262.1 54.34,-252.1 50.84,-262.1 57.84,-262.1"/>
</g>
<!-- 2 -->
<g id="node4" class="node">
<title>2</title>
<ellipse fill="none" stroke="black" cx="54.34" cy="-162" rx="27" ry="18"/>
<text text-anchor="middle" x="54.34" y="-158.3" font-family="Times,serif" font-size="14.00">2</text>
</g>
<!-- 4&#45;&gt;2 -->
<g id="edge3" class="edge">
<title>4&#45;&gt;2</title>
<path fill="none" stroke="black" d="M54.34,-215.7C54.34,-207.98 54.34,-198.71 54.34,-190.11"/>
<polygon fill="black" stroke="black" points="57.84,-190.1 54.34,-180.1 50.84,-190.1 57.84,-190.1"/>
</g>
<!-- 0 -->
<g id="node5" class="node">
<title>0</title>
<ellipse fill="none" stroke="black" cx="54.34" cy="-90" rx="27" ry="18"/>
<text text-anchor="middle" x="54.34" y="-86.3" font-family="Times,serif" font-size="14.00">0</text>
</g>
<!-- 2&#45;&gt;0 -->
<g id="edge4" class="edge">
<title>2&#45;&gt;0</title>
<path fill="none" stroke="black" d="M54.34,-143.7C54.34,-135.98 54.34,-126.71 54.34,-118.11"/>
<polygon fill="black" stroke="black" points="57.84,-118.1 54.34,-108.1 50.84,-118.1 57.84,-118.1"/>
</g>
<!-- 1 -->
<g id="node6" class="node">
<title>1</title>
<ellipse fill="none" stroke="black" cx="54.34" cy="-18" rx="27" ry="18"/>
<text text-anchor="middle" x="54.34" y="-14.3" font-family="Times,serif" font-size="14.00">1</text>
</g>
<!-- 0&#45;&gt;1 -->
<g id="edge5" class="edge">
<title>0&#45;&gt;1</title>
<path fill="none" stroke="black" d="M54.34,-71.7C54.34,-63.98 54.34,-54.71 54.34,-46.11"/>
<polygon fill="black" stroke="black" points="57.84,-46.1 54.34,-36.1 50.84,-46.1 57.84,-46.1"/>
</g>
</g>
</svg>
