<?xml version="1.0" encoding="UTF-8" standalone="no"?>
<!DOCTYPE svg PUBLIC "-//W3C//DTD SVG 1.1//EN"
 "http://www.w3.org/Graphics/SVG/1.1/DTD/svg11.dtd">
<!-- Generated by graphviz version 2.43.0 (0)
 -->
<!-- Title: callGraph Pages: 1 -->
<svg width="418pt" height="404pt"
 viewBox="0.00 0.00 417.63 404.00" xmlns="http://www.w3.org/2000/svg" xmlns:xlink="http://www.w3.org/1999/xlink">
<g id="graph0" class="graph" transform="scale(1 1) rotate(0) translate(4 400)">
<title>callGraph</title>
<polygon fill="white" stroke="transparent" points="-4,4 -4,-400 413.63,-400 413.63,4 -4,4"/>
<!-- call_graphs_start -->
<g id="node1" class="node">
<title>call_graphs_start</title>
<ellipse fill="none" stroke="black" cx="210.34" cy="-378" rx="90.18" ry="18"/>
<text text-anchor="middle" x="210.34" y="-374.3" font-family="Times,serif" font-size="14.00">call_graphs_start</text>
</g>
<!-- __iar_program_start -->
<g id="node2" class="node">
<title>__iar_program_start</title>
<ellipse fill="none" stroke="black" cx="103.34" cy="-306" rx="103.18" ry="18"/>
<text text-anchor="middle" x="103.34" y="-302.3" font-family="Times,serif" font-size="14.00">__iar_program_start</text>
</g>
<!-- call_graphs_start&#45;&gt;__iar_program_start -->
<g id="edge1" class="edge">
<title>call_graphs_start&#45;&gt;__iar_program_start</title>
<path fill="none" stroke="black" d="M185.25,-360.59C171,-351.26 152.96,-339.46 137.44,-329.31"/>
<polygon fill="black" stroke="black" points="138.93,-326.1 128.64,-323.55 135.09,-331.96 138.93,-326.1"/>
</g>
<!-- __default_handler -->
<g id="node7" class="node">
<title>__default_handler</title>
<ellipse fill="none" stroke="black" cx="317.34" cy="-306" rx="92.08" ry="18"/>
<text text-anchor="middle" x="317.34" y="-302.3" font-family="Times,serif" font-size="14.00">__default_handler</text>
</g>
<!-- call_graphs_start&#45;&gt;__default_handler -->
<g id="edge6" class="edge">
<title>call_graphs_start&#45;&gt;__default_handler</title>
<path fill="none" stroke="black" d="M235.43,-360.59C249.68,-351.26 267.72,-339.46 283.24,-329.31"/>
<polygon fill="black" stroke="black" points="285.59,-331.96 292.04,-323.55 281.76,-326.1 285.59,-331.96"/>
</g>
<!-- __cmain -->
<g id="node3" class="node">
<title>__cmain</title>
<ellipse fill="none" stroke="black" cx="103.34" cy="-234" rx="47.39" ry="18"/>
<text text-anchor="middle" x="103.34" y="-230.3" font-family="Times,serif" font-size="14.00">__cmain</text>
</g>
<!-- __iar_program_start&#45;&gt;__cmain -->
<g id="edge2" class="edge">
<title>__iar_program_start&#45;&gt;__cmain</title>
<path fill="none" stroke="black" d="M103.34,-287.7C103.34,-279.98 103.34,-270.71 103.34,-262.11"/>
<polygon fill="black" stroke="black" points="106.84,-262.1 103.34,-252.1 99.84,-262.1 106.84,-262.1"/>
</g>
<!-- main -->
<g id="node4" class="node">
<title>main</title>
<ellipse fill="none" stroke="black" cx="103.34" cy="-162" rx="33.6" ry="18"/>
<text text-anchor="middle" x="103.34" y="-158.3" font-family="Times,serif" font-size="14.00">main</text>
</g>
<!-- __cmain&#45;&gt;main -->
<g id="edge3" class="edge">
<title>__cmain&#45;&gt;main</title>
<path fill="none" stroke="black" d="M103.34,-215.7C103.34,-207.98 103.34,-198.71 103.34,-190.11"/>
<polygon fill="black" stroke="black" points="106.84,-190.1 103.34,-180.1 99.84,-190.1 106.84,-190.1"/>
</g>
<!-- cgt1 -->
<g id="node5" class="node">
<title>cgt1</title>
<ellipse fill="none" stroke="black" cx="103.34" cy="-90" rx="31.4" ry="18"/>
<text text-anchor="middle" x="103.34" y="-86.3" font-family="Times,serif" font-size="14.00">cgt1</text>
</g>
<!-- main&#45;&gt;cgt1 -->
<g id="edge4" class="edge">
<title>main&#45;&gt;cgt1</title>
<path fill="none" stroke="black" d="M103.34,-143.7C103.34,-135.98 103.34,-126.71 103.34,-118.11"/>
<polygon fill="black" stroke="black" points="106.84,-118.1 103.34,-108.1 99.84,-118.1 106.84,-118.1"/>
</g>
<!-- cgt2 -->
<g id="node6" class="node">
<title>cgt2</title>
<ellipse fill="none" stroke="black" cx="103.34" cy="-18" rx="31.4" ry="18"/>
<text text-anchor="middle" x="103.34" y="-14.3" font-family="Times,serif" font-size="14.00">cgt2</text>
</g>
<!-- cgt1&#45;&gt;cgt2 -->
<g id="edge5" class="edge">
<title>cgt1&#45;&gt;cgt2</title>
<path fill="none" stroke="black" d="M103.34,-71.7C103.34,-63.98 103.34,-54.71 103.34,-46.11"/>
<polygon fill="black" stroke="black" points="106.84,-46.1 103.34,-36.1 99.84,-46.1 106.84,-46.1"/>
</g>
</g>
</svg>
